<?xml version="1.0" encoding="utf-8"?>
<!-- Generator: Adobe Illustrator 25.3.0, SVG Export Plug-In . SVG Version: 6.00 Build 0)  -->
<svg version="1.1" id="Capa_1" xmlns="http://www.w3.org/2000/svg" xmlns:xlink="http://www.w3.org/1999/xlink" x="0px" y="0px"
	 viewBox="0 0 79 79" style="enable-background:new 0 0 79 79;" xml:space="preserve">
<style type="text/css">
	.st0{fill:#29BA66;}
</style>
<path class="st0" d="M32.4,13.1l16.3,0.4c0.3,0,0.6,0.1,0.9,0.4l9.8,9.8c0.9,0.9,1.4,2,1.4,3.3l0.5,12.7c0,0.5,0.4,0.9,0.9,0.9
	l9.5,0c2.4,0,4.4,2,4.4,4.4v0.3c0,1.2-0.4,2.2-1.3,3c-0.8,0.8-1.9,1.3-3,1.3H56.2c-2.3,0-4.3-2-4.3-4.3l0-8.3l-11.9,0l0,15
	c0,0.4-0.2,0.8-0.6,1.1L21.5,65.1c-1.3,0.8-2.9,1-4.4,0.5c-0.7-0.3-1.4-0.7-2-1.2c-0.5-0.5-0.9-1.1-1.2-1.8
	c-0.9-2.3,0.1-4.9,2.2-6.2l12.2-8.9l0.2-11.2l-13.4,0.4c-0.4,0-0.7-0.1-0.9-0.4L1.6,23.8c-1-1-1.5-2.4-1.5-3.7
	c0-1.4,0.6-2.7,1.7-3.7c2-1.8,5.2-1.7,7.2,0.3l8.5,8.5l29.1-1.6l-2.1-2.1l-12.1,0.3c-1.2,0-2.4-0.4-3.3-1.3l0,0
	c-0.9-0.9-1.3-2-1.3-3.3C27.9,14.9,29.9,13.1,32.4,13.1z M65.8,24.7c3-3,7.9-3,10.8,0c3,3,3,7.9,0,10.8c-3,3-7.9,3-10.8,0
	C62.8,32.6,62.8,27.7,65.8,24.7z"/>
</svg>
