<?xml version="1.0" encoding="utf-8"?>
<!-- Generator: Adobe Illustrator 25.3.0, SVG Export Plug-In . SVG Version: 6.00 Build 0)  -->
<svg version="1.1" id="Capa_1" xmlns="http://www.w3.org/2000/svg" xmlns:xlink="http://www.w3.org/1999/xlink" x="0px" y="0px"
	 viewBox="0 0 79 79" style="enable-background:new 0 0 79 79;" xml:space="preserve">
<style type="text/css">
	.st0{fill:#3F9CBB;}
</style>
<path class="st0" d="M63.6,74.1l12.9-20.8c3.5-5.6,4-14.4-2.4-20.8L46.5,5c-4.7-4.7-13.2-7.2-20.8-2.4L4.9,15.4
	c-5.6,3.5-6.6,11.3-1.9,16c2,2,4.9,2.8,7.7,2.1l8.1-2c1.4-0.3,2.9,0.1,3.9,1.1l23.6,23.6c1,1,1.4,2.5,1.1,3.9l-2,8.1
	c-0.7,2.8,0.1,5.7,2.1,7.7C52.2,80.7,60.1,79.8,63.6,74.1z M38.3,25.9l-2-2l-2,2c-1,0.9-2.5,0.9-3.5,0c-0.9-1-0.9-2.5,0-3.4l2-2
	l-2-2c-0.9-1-0.9-2.5,0-3.5c1-0.9,2.5-0.9,3.4,0l2,2l2-2c1-0.9,2.5-0.9,3.5,0c0.9,1,0.9,2.5,0,3.4l-2,2l2,2c0.9,1,0.9,2.5,0,3.5
	C40.8,26.8,39.2,26.8,38.3,25.9z M53.1,40.7c-1-1-1-2.5,0-3.5c1-1,2.5-1,3.5,0c0,0,0,0,0,0c0.9,1,0.9,2.5-0.1,3.5
	C55.6,41.7,54.1,41.7,53.1,40.7L53.1,40.7z M53.1,48.2c-0.9-1-0.9-2.5,0.1-3.5c0.9-0.9,2.4-0.9,3.4,0c0.9,1,0.9,2.5-0.1,3.5
	C55.5,49,54,49,53.1,48.2L53.1,48.2z M60.5,40.7c-1-1-1-2.5,0-3.5c1-1,2.5-1,3.5,0c1,1,1,2.5,0,3.5c0,0,0,0,0,0
	C63,41.7,61.5,41.7,60.5,40.7z M60.5,48.2c-0.9-1-0.9-2.5,0.1-3.5c0.9-0.9,2.4-0.9,3.4,0c0.9,1,0.9,2.5-0.1,3.5
	C62.9,49,61.5,49,60.5,48.2z"/>
</svg>
