<?xml version="1.0" encoding="utf-8"?>
<!-- Generator: Adobe Illustrator 25.3.0, SVG Export Plug-In . SVG Version: 6.00 Build 0)  -->
<svg version="1.1" id="Capa_1" xmlns="http://www.w3.org/2000/svg" xmlns:xlink="http://www.w3.org/1999/xlink" x="0px" y="0px"
	 viewBox="0 0 79 79" style="enable-background:new 0 0 79 79;" xml:space="preserve">
<style type="text/css">
	.st0{fill:#5A1CBB;}
</style>
<g>
	<path class="st0" d="M43.5,37.9c4.4,4.4,12,5.3,17.7-0.4c4.8-4.8,4.8-12.5,0-17.3L44.7,3.7C40.2-0.7,32.6-1.5,27,4.1
		c-4.3,4.3-4.7,11.1-1.2,15.9L20,25.7c-1.2,1.2-0.3,3.3,1.5,3.2l12.4-0.7L43.5,37.9L43.5,37.9z M53.9,27.4c0.9,0.9,1,2.4,0,3.3
		c-0.9,0.9-2.4,1-3.3,0c0,0,0,0,0,0c-0.9-0.9-0.9-2.4,0-3.3C51.5,26.4,53,26.4,53.9,27.4L53.9,27.4z M34.2,14.3
		c-0.9-0.9-1-2.4-0.1-3.3c0.9-0.9,2.4-1,3.3-0.1c0,0,0,0,0.1,0.1c0.9,0.9,0.9,2.4,0,3.3C36.6,15.2,35.1,15.2,34.2,14.3L34.2,14.3z
		 M45.7,19.2c0.9,0.9,1,2.4,0,3.3s-2.4,1-3.3,0c0,0,0,0,0,0c-0.9-0.9-0.9-2.4,0-3.3C43.4,18.3,44.8,18.3,45.7,19.2z M52,53.6
		L35.5,37.1c-4.8-4.8-12.5-4.8-17.3,0c-5.6,5.6-4.8,13.2-0.4,17.7l9.6,9.6l-0.7,12.4c-0.1,1.7,2,2.7,3.2,1.5l5.8-5.8
		c4.8,3.5,11.6,3.1,15.9-1.2C57.2,65.7,56.5,58.1,52,53.6z M25.1,47.7c-0.9-0.9-0.9-2.4,0-3.3c0.9-0.9,2.4-0.9,3.3,0
		c0.9,0.9,0.9,2.4,0,3.3C27.4,48.6,26,48.6,25.1,47.7L25.1,47.7z M33.3,55.9c-0.9-0.9-1-2.4-0.1-3.3s2.4-1,3.3-0.1c0,0,0,0,0.1,0.1
		c0.9,0.9,0.9,2.4,0,3.3C35.6,56.8,34.2,56.8,33.3,55.9L33.3,55.9z M41.5,64.1c-0.9-0.9-0.9-2.4,0-3.3c0.9-0.9,2.4-0.9,3.3,0l0,0
		c0.9,0.9,0.9,2.4,0,3.3C43.9,65,42.4,65,41.5,64.1L41.5,64.1z"/>
</g>
</svg>
