<?xml version="1.0" encoding="utf-8"?>
<!-- Generator: Adobe Illustrator 25.3.0, SVG Export Plug-In . SVG Version: 6.00 Build 0)  -->
<svg version="1.1" id="Capa_1" xmlns="http://www.w3.org/2000/svg" xmlns:xlink="http://www.w3.org/1999/xlink" x="0px" y="0px"
	 viewBox="0 0 79 79" style="enable-background:new 0 0 79 79;" xml:space="preserve">
<style type="text/css">
	.st0{fill:#F04667;}
</style>
<path class="st0" d="M32.8,1c0.7-0.7,1.9-0.7,2.6,0c0,0,0,0,0,0l1.3,1.3L9,30.2c-2.2,2.2-2.1,5.8,0.1,8l12.1,12.1
	c-1,2.1-0.6,4.7,1.1,6.4c1.7,1.7,4.2,2.1,6.4,1.1l12.1,12.1c2.2,2.2,5.8,2.3,8,0.1l27.8-27.8l1.3,1.3c0.7,0.7,0.7,1.9,0,2.6
	c0,0,0,0,0,0L46.2,78c-0.7,0.7-1.9,0.7-2.6,0c0,0,0,0,0,0L28.7,63.1c-2.1,1-4.7,0.6-6.4-1.1L17,56.7c-1.7-1.7-2.1-4.2-1.1-6.4
	L1,35.4c-0.7-0.7-0.7-1.9,0-2.6c0,0,0,0,0,0L32.8,1z M59.3,22.3c1.9,0.3,3.8,1.1,5.3,2.6l10.6,10.6c0.7,0.7,0.7,1.9,0,2.6
	c0,0,0,0,0,0L46.1,67.3c-0.7,0.7-1.9,0.7-2.6,0c0,0,0,0,0,0L30.2,54.1c-0.7-0.7-1.9-0.7-2.6,0L59.3,22.3z M48.8,6.4
	c0.7-0.7,1.9-0.7,2.6,0c0,0,0,0,0,0c4.5,4.5,5.9,9,6.2,12.3L27.2,49.1c0.3-1.5,1.2-7.5-4.9-13.6c-0.7-0.7-0.7-1.9,0-2.6c0,0,0,0,0,0
	L48.8,6.4z M40.8,3.8c0.7-0.7,1.9-0.7,2.6,0c0,0,0,0,0,0l1.3,1.3L19.7,30.2c-2.2,2.2-2.2,5.7,0,7.9c4,4,4.2,7.7,4,9.3l-12-12
	c-0.7-0.7-0.7-1.9,0-2.6c0,0,0,0,0,0L40.8,3.8z"/>
</svg>
